<svg id="SVG_Layers" data-name="SVG Layers" xmlns="http://www.w3.org/2000/svg" width="883.47" height="1049.316" viewBox="0 0 883.47 1049.316">
  <defs>
    <style>
      .cls-1 {
        fill: gold;
      }

      .cls-1, .cls-2, .cls-3, .cls-4, .cls-5 {
        fill-rule: evenodd;
      }

      .cls-2 {
        fill: #08172f;
      }

      .cls-3 {
        fill: #bf0a30;
      }

      .cls-4 {
        fill: #fff;
      }

      .cls-5 {
        fill: #002868;
      }
    </style>
  </defs>
  <path id="Blue_Base" data-name="Blue Base" class="cls-1" d="M216.262,603.61l153.717-295.3s-0.45-6.914,17.8-6.473,547.719,0,547.719,0,7.292-.5,12.945,8.9S1098.92,597.947,1098.92,597.947s2.58,3.614-1.62,19.416S891,1339.83,891,1339.83s2.166,10.25-13.754,10.52-440.926.81-440.926,0.81-7.916-1.29-11.326-13.75S217.88,610.082,217.88,610.082Z" transform="translate(-216.25 -301.844)"/>
  <path id="Red_Overlay" data-name="Red Overlay" class="cls-2" d="M449.265,1323.65H867.538L1071.42,606.037,927.407,329.346H389.4L246.2,605.228Z" transform="translate(-216.25 -301.844)"/>
  <path id="Light_Blue_medallion" data-name="Light Blue medallion" class="cls-1" d="M400.723,718.493s-1.353-4.2,1.618-10.517S463.019,593.9,463.019,593.9s-1.22-3.011,6.472-3.236,381.057,0,381.057,0a12.356,12.356,0,0,1,4.854,5.663c1.783,4.026,60.678,113.266,60.678,113.266a21.883,21.883,0,0,1,0,9.708c-1.2,5.447-135.109,477.338-135.109,477.338s0.774,4.98-10.518,4.85-228.958-.81-228.958-0.81-3.577.19-4.854-4.85S400.723,718.493,400.723,718.493Z" transform="translate(-216.25 -301.844)"/>
  <path id="Medallion_Inlay" data-name="Medallion Inlay" class="cls-3" d="M408.813,712.021L470.3,598.756H847.312L907.99,713.639,772.071,1191.78H545.541Z" transform="translate(-216.25 -301.844)"/>
  <path id="White_Stripes" data-name="White Stripes" class="cls-4" d="M541.5,1176.41l-14.562-50.16c28.475-20.87,60.476-34.83,94.657-40.45,20.556-3.39,51.6-2.59,85.758,3.23a556.571,556.571,0,0,1,88.185,22.66l-12.944,42.07c-39.828-12.29-84.893-21.31-125.4-21.04-23.839.16-43.863,3.77-58.251,8.9a178.2,178.2,0,0,0-46.924,25.89c-2.784,2.1-5.441,4.23-8.09,6.47Zm233-457.917-14.563-50.969a284.5,284.5,0,0,0,106.793-32.362L891,681.277a317.241,317.241,0,0,1-52.588,22.654A367.519,367.519,0,0,1,774.5,718.493Zm26.7,91.422-12.945-43.688a206.56,206.56,0,0,0,116.5-40.452l-18.608,66.341A245.061,245.061,0,0,1,806.051,808.3Zm-354.358,35.4c25.269-17.957,53.512-29.466,83.49-33.1,14.17-1.72,42.065-.336,69.71,5.652a575.085,575.085,0,0,1,58.767,16.32c5.92,1.942,11.912,3.606,17.8,5.663a58.856,58.856,0,0,0,6.472,1.618c0.624,0.152.188,0.661,0.809,0.809,18.061,4.306,35.152,11.72,50.161,12.945,2.387,0.2,5.057.739,7.281,0.809,3.44,0.107,6.533.111,9.708,0,8.721-.306,17.663-2.636,26.7-4.045,2.625-.41,14.244-0.878,16.989-0.809,8.143,0.2,20.455,1.962,37.141.6a171.147,171.147,0,0,0,39.718-8.075l-16.211,57.329a338.5,338.5,0,0,1-77.816-5.652c-29.764-5.68-53.5-15.811-83.49-25.838-27.579-9.221-56.39-17.55-75.384-20.186-34.779-4.827-65.19-3.633-92.406,1.614a266.5,266.5,0,0,0-70.52,24.224l-9.727-29.068M730,1050.2a70.561,70.561,0,0,0,21.844-36.41h0.809q32.363,8.91,64.724,17.8l-11.327,40.45ZM592.465,989.521V1041.3a149.8,149.8,0,0,0-79.286,35.6l-13.754-46.93A162.746,162.746,0,0,1,551.2,999.23,197.107,197.107,0,0,1,592.465,989.521Zm28.316,46.929c0-.01,0-43.411,0-50.165,17.174,1.822,33.973,4.222,50.97,7.281,17.492,3.149,34.568,6.884,51.778,11.324-0.194,8.41-2.9,16.58-8.9,21.85a15.694,15.694,0,0,1-8.091,4.04c-6.228.71-11.924-3.57-14.695-8.15a17.594,17.594,0,0,1-2.3-11.26l-28.316,2.42a59.413,59.413,0,0,0,6.472,23.46c-8.113-.43-16.069-0.69-24.271-0.8C632.091,1036.29,620.782,1036.44,620.781,1036.45Zm-134.3-54.21-14.563-46.924a162.54,162.54,0,0,1,118.12-42.07v0.809a72.962,72.962,0,0,1-33.171,26.7v25.889A143.979,143.979,0,0,0,487.6,981.891Zm134.3-88.994v48.542a137.146,137.146,0,0,1,38.025,4.045v-1.618a68.809,68.809,0,0,1,9.708-44.5l-2.427-.809a172.2,172.2,0,0,0-45.306-5.663m67.15,56.632a54.809,54.809,0,0,1,0-24.271c2.149-9.15,6.217-14.165,8.78-15.217,1.894-.778,7.661-0.415,14.4,2.431a26.451,26.451,0,0,1,5.754,3.206c3.308,2.84,5.423,8.657,6.777,17.786a55.31,55.31,0,0,1,.7,12.829,37.337,37.337,0,0,1-4.045,12.945l-31.553-8.9Zm63.914-24.271c-0.686.2,3.083,13.61,4.046,25.889a113.724,113.724,0,0,1,0,17.8h1.618c10,2.953,19.814,5.606,29.934,8.091,14.018,3.441,27.856,6.368,42.07,8.9l12.945-42.879c-16.959-2.194-40.048-5.394-50.161-6.472-20.26-2.16-39.358-10.214-40.3-11.244A0.192,0.192,0,0,0,751.845,925.607ZM578.711,940.979l13.754-11.327v11.327H578.711Z" transform="translate(-216.25 -301.844)"/>
  <path id="Blue_Flag" data-name="Blue Flag" class="cls-5" d="M446.029,845.512L409.622,716.875s-1.982-1.641,2.427-8.9,56.633-107.6,56.633-107.6-1.949-1.627,8.9-1.618,263.747-.809,263.747-0.809l70.386,254.038a154.815,154.815,0,0,0-32.361,0c-7.739.817-14.1,2.465-21.844,3.236-21.368,2.126-38.62-2.659-50.97-6.473-28.478-8.794-61.442-19.575-84.14-25.889-18.886-5.253-36.4-8.809-50.969-9.708-18.838-1.163-42.071.718-68.768,7.281-18.817,4.626-33.512,10.63-45.307,17.8-3.344,2.033-6.557,4.175-9.708,6.472Z" transform="translate(-216.25 -301.844)"/>
  <path id="_19" data-name="19" class="cls-5" d="M556.058,921.562l0.809,31.553a100.041,100.041,0,0,0,35.6-25.081V1055.86h28.316V879.492H597.319a71.985,71.985,0,0,1-40.452,41.261ZM726.765,982.24c-0.591,7.32-1.389,14.487-2.427,21.84a72.542,72.542,0,0,1-4.045,13.76c-1.87,4.41-4.1,8.03-8.091,10.52-3.809,2.37-7.066,2.82-9.708,2.42-2.78-.42-5.829-1.94-8.9-5.66a18.9,18.9,0,0,1-4.046-12.95l-28.316,2.43a64.745,64.745,0,0,0,8.09,24.27c4.556,7.88,10.884,13.66,13.754,15.37,4.128,2.47,10.091,4.67,18.608,4.86a44.778,44.778,0,0,0,25.08-7.28c3.853-2.48,12.016-10.4,17.8-21.04a84.784,84.784,0,0,0,8.09-22.65,114.34,114.34,0,0,0,2.428-21.036c0.345-9.225.922-21.154,0.809-26.7-0.306-15.015-1.816-27.312-4.855-38.834-2.889-10.957-6.9-20.249-14.562-28.316-6.784-7.14-13.335-10.546-18.608-12.136a40.692,40.692,0,0,0-12.136-1.618,45.36,45.36,0,0,0-25.889,8.09c-5.269,3.734-10.913,9.6-15.372,19.417-1.915,4.216-4.158,15.579-4.854,26.7a101.353,101.353,0,0,0,0,15.371c1.028,9.78,3.861,17.884,6.472,22.653a47.971,47.971,0,0,0,16.181,17.8c8.784,5.6,17.375,6.81,21.035,6.473,8.382-.774,15.823-5.4,21.035-12.136Zm-39.643-41.261c-0.226-7.721-.455-12.83,1.658-19.5,2.106-6.645,5.112-10.178,8.051-12.058a14.151,14.151,0,0,1,8.09-2.427c3.315,0.114,7.506,1.7,12.136,7.282,4.864,5.863,5.778,12.541,6.472,24.271,0.641,10.839.552,17.187-3.236,22.653-1.985,2.864-7.127,8.833-14.563,8.9-8.2.073-13.581-6.92-15.371-9.708C687.257,955.567,687.381,949.8,687.122,940.979Z" transform="translate(-216.25 -301.844)"/>
  <path id="EMS" class="cls-4" d="M608.961,1300.76v-16.21H590.075v-19.46H607.2v-15.24H590.075v-16.79h18.886V1217.7H574.033v83.06h34.928Zm29.376,0,2.56-38.34c0.075-1.18.189-2.96,0.341-5.35q1.024-15.75,1.024-24.23l10.182,67.92h12l10.808-67.47q0,9.675.74,24.8c0.076,1.82.132,3.19,0.171,4.1l1.763,38.57H694.71l-7-83.06h-21.1l-5.347,31.69q-0.456,3.075-1.167,9.41t-1.735,17.33q-0.4-6.255-1.052-12.89t-1.621-13.85l-4.323-31.69H630.031l-8.134,83.06h16.44Zm75.2,0.05a29.288,29.288,0,0,0,7.765.97q11.035,0,17.435-6.57t6.4-17.89a25.285,25.285,0,0,0-2.39-11.46q-2.388-4.755-10.751-11.92-6.258-5.4-7.964-8.16a11.1,11.1,0,0,1-1.706-5.95,7.888,7.888,0,0,1,2.275-5.88,7.977,7.977,0,0,1,5.859-2.25,13.69,13.69,0,0,1,4.295.8,60.091,60.091,0,0,1,6.8,2.9v-14.68a34.812,34.812,0,0,0-7.139-3.1,24.318,24.318,0,0,0-6.855-1q-9.784,0-15.843,6.63t-6.058,17.38a26.191,26.191,0,0,0,2.844,12.32q2.844,5.43,10.467,12.25c0.607,0.57,1.517,1.37,2.731,2.39q6.54,5.52,6.542,10.24a7.786,7.786,0,0,1-2.418,6.03,9.425,9.425,0,0,1-6.627,2.22,14.629,14.629,0,0,1-6.087-1.36,25.494,25.494,0,0,1-6.144-4.1v17.24A22.655,22.655,0,0,0,713.534,1300.81Z" transform="translate(-216.25 -301.844)"/>
  <path id="FIRE" class="cls-4" d="M341.72,870.192l33.868-9.426,4.85,17.427,14.742-4.1-4.85-17.427,16.605-4.622,5.308,19.072,14.8-4.119-9.61-34.525-80.011,22.269Zm15.722,56.49,80.012-22.269-4.53-16.276-80.012,22.269Zm78.734,21.3c0.107,0.246.21,0.512,0.311,0.8s0.226,0.7.378,1.252q1.479,5.316-.48,8.46t-7.714,4.745q-5.644,1.571-9.281-.252t-5.086-7.028c-0.051-.183-0.116-0.49-0.2-0.919s-0.146-.738-0.2-0.92Zm-67.587,18.752,33.1-9.213-29.471,22.256L376.9,996.6l32.228-25.5a17.419,17.419,0,0,0,9.907,7.488q6.056,1.709,14.605-.67,11.783-3.279,15.438-10.939t-0.159-21.361L444.3,929.009l-80.012,22.269Zm22.525,80.928,15.619-4.34-5.064-18.2,18.742-5.21L425,1036.4l14.687-4.09-4.591-16.49,16.166-4.5,5.064,18.19,14.8-4.11-9.365-33.653-80.012,22.273Z" transform="translate(-216.25 -301.844)"/>
  <path id="RESCUE" class="cls-4" d="M848.867,1058.25c0.041-.26.1-0.54,0.166-0.84s0.188-.72.353-1.26q1.6-5.31,4.951-6.91c2.233-1.08,5.261-1.03,9.084.12q5.626,1.71,7.727,5.2t0.532,8.69c-0.055.18-.164,0.48-0.327,0.88s-0.272.71-.327,0.89Zm67.328,20.43-32.99-9.98,36.922-3.02,5.073-16.76-41,4.28a17.456,17.456,0,0,0-4.37-11.66q-4.212-4.71-12.732-7.28-11.742-3.555-18.954.97T836.8,1053.41l-5.006,16.55,79.742,24.13Zm20.172-66.67L920.8,1007.3l-5.486,18.13-18.679-5.65,4.973-16.44-14.637-4.431L882,1015.35l-16.112-4.88,5.486-18.128-14.747-4.462-10.146,33.54,79.743,24.12Zm3.629-11.8a29.661,29.661,0,0,0,3.184-7.177q3.206-10.595-1.244-18.649t-15.318-11.341a25.359,25.359,0,0,0-11.7-1.036q-5.253.915-14.565,6.861-7.006,4.44-10.151,5.276a11.135,11.135,0,0,1-6.2-.088,7.778,7.778,0,0,1-5.447-10.174,13.983,13.983,0,0,1,2.012-3.892,62.015,62.015,0,0,1,4.76-5.684l-14.091-4.263A34.939,34.939,0,0,0,866.181,956a24.277,24.277,0,0,0-2.947,6.292q-2.842,9.395,1.761,17.136t14.926,10.865a26.229,26.229,0,0,0,12.651.847q6.043-1.153,14.811-6.489,1.083-.625,3.087-1.928,7.2-4.677,11.732-3.307a7.8,7.8,0,0,1,5.087,4.073,9.46,9.46,0,0,1,.205,7.008,14.673,14.673,0,0,1-3.079,5.447,25.5,25.5,0,0,1-5.717,4.709l16.549,5.01A22.738,22.738,0,0,0,940,1000.21Zm6.455-82.426a25.706,25.706,0,0,1,.139,4.663,18.838,18.838,0,0,1-.756,4.272q-2.428,8.029-10.91,11.037t-19.679-.379q-11.633-3.519-17.175-10.621t-3.13-15.076a22.252,22.252,0,0,1,1.718-4.1,26.469,26.469,0,0,1,2.712-4.038l-14.911-4.511a22.6,22.6,0,0,0-2.868,4.259,29.538,29.538,0,0,0-2.051,5.1q-4.543,15.021,4.109,27.8t27.331,18.434q17.971,5.436,31.941-.74T961.5,932.473a24.877,24.877,0,0,0,.948-4.811,26.8,26.8,0,0,0,0-5.036ZM895.876,858.14l51.341,15.533q9.668,2.925,11.948,5.731t0.711,8q-1.536,5.079-4.952,6.222t-13.193-1.815L890.39,876.273l-4.809,15.894,47.737,14.442,2.348,0.711a110.242,110.242,0,0,0,13.11,3.37,21.4,21.4,0,0,0,7.007.093,19.048,19.048,0,0,0,11.029-5.815q4.434-4.709,7.046-13.339t1.514-14.953a19.4,19.4,0,0,0-5.957-10.953A21.8,21.8,0,0,0,963.6,862a111.076,111.076,0,0,0-12.861-4.487l-50.085-15.152Zm97.469-34.469-15.566-4.709L972.293,837.1l-18.679-5.651L958.587,815l-14.637-4.428-4.974,16.44-16.112-4.874,5.486-18.134L913.6,799.546l-10.146,33.535L983.2,857.206Z" transform="translate(-216.25 -301.844)"/>
  <path id="Stars" class="cls-4" d="M771.262,826.1l-8.9-4.854,8.09-1.618,0.809-8.9,6.473,7.281h8.09l-3.236,5.663,4.045,8.9-8.09-4.045-6.473,5.663Zm-28.316-15.371-4.045-8.091,6.472-7.281h-8.9l-5.664-8.9-3.236,8.091h-8.9l8.09,6.472V808.3l6.473-3.237Zm-28.316,7.281-7.282,4.045,0.809,8.9-8.09-6.473-8.09,3.236,2.427-7.281-7.282-8.09,9.709,0.809,4.045-7.282,3.236,9.709Zm50.16-40.452,8.09,3.236-4.854-7.281,4.854-7.281h-9.708l-5.663-7.282-0.809,8.9-9.709.809,9.709,5.663,0.809,8.9Zm-40.452-27.507,6.472-4.855-8.9-.808-4.854-8.9-4.045,7.281-8.9.809,8.09,5.664-0.809,8.09,7.282-3.236,8.9,4.045-3.236-8.09m-32.361,19.417,7.281-4.046-9.709-2.427-3.236-8.9-4.045,8.09-8.9-1.618,5.663,6.473-1.618,8.09,8.09-2.427,8.091,5.663Zm-24.272,17.8,6.473-3.237-8.9-3.236-2.427-8.9-5.663,6.472-7.281-.809,4.854,7.281-3.236,7.282,8.9-2.427,8.09,7.281Zm-30.743,9.708,8.9,3.236-8.09,3.236,1.618,9.709-8.09-6.473-8.091,2.428,2.427-8.091-6.472-6.472,8.9,0.809,4.854-8.09Zm-13.754-45.306,8.091-3.236-9.709-3.237-3.236-9.708-4.045,7.281-9.709-.809,5.664,7.282-2.427,7.281,8.09-2.427,8.09,5.663Zm-29.125,16.181,8.09-4.046-9.708-2.427-3.236-9.708-4.046,7.281-8.9-.809,5.663,7.281-3.236,6.473,8.091-1.618,7.281,4.045v-6.472Zm-30.744,17.8L569,781.6l-8.9-1.618-4.854-9.708-3.236,8.09-8.9.809,8.091,5.663-1.618,8.9,8.09-4.045,8.091,4.045Zm185.27-59.868-5.663,4.854-1.618-8.9-8.9-3.236,8.091-2.427,1.618-8.9,5.663,8.09h9.709l-4.855,4.854,4.855,8.9Zm-35.6-18.608-3.237-8.091,6.473-5.663-9.709-1.618-4.854-8.9-3.236,8.09h-8.9l8.091,6.472-0.809,8.9,7.281-4.046Zm16.18-28.317L735.665,674l8.09,3.236-4.045-8.09,4.854-7.281-9.708.809-5.664-7.282-0.809,8.091-8.9,2.427,8.9,4.045Zm-64.723,46.116,8.091-3.237,7.281,5.664-0.809-7.282,8.09-4.854-9.708-2.427-3.236-10.518-5.664,7.282h-8.09l6.472,7.281Zm-13.753,4.045-2.427-8.091-5.664,4.855-8.09-1.618,4.045,6.472-3.236,8.09,8.09-1.618,7.282,5.663,0.809-7.281,8.9-2.427Zm-169.089,75.24,5.663-5.663,8.9,2.427-6.472-8.09,4.854-6.473h-9.708l-6.473-6.472-0.809,9.709-8.09,2.427,9.708,3.236Zm26.7-32.361,6.472-4.854,8.9,4.854-3.237-8.9,4.855-5.663-8.9-.809-5.663-8.09-2.427,8.09-8.9.809,8.091,5.663Zm28.316-29.935,0.809-8.09-8.09-5.663,8.9-.809L542.3,719.3l4.855,9.709h8.9l-6.472,5.663,3.236,8.09-8.9-4.045-8.091,4.045m28.316-22.653,3.237-6.472-5.664-7.281,8.9,1.618,4.045-7.282,4.045,9.709,9.709,1.618-8.091,4.854,0.809,8.091-8.09-5.664Zm28.317-16.989,3.236-7.282-5.663-6.472,8.9,1.618,5.663-5.663,1.618,7.281,8.9,4.854-6.472,3.236-0.809,8.091-5.664-5.663h-9.708Zm28.316-14.563,3.236-7.282-5.663-8.09,8.9,2.427,5.663-6.472,1.618,8.9,8.9,1.618-7.281,4.046,1.618,8.9-7.281-6.472Zm27.508-16.99,8.09-2.427,8.09,5.663-1.618-8.09,6.472-4.854-8.09-2.428-4.045-8.09-4.854,6.472-8.091-.809,6.473,6.473Zm33.979-17.8v-8.09l-7.281-5.664,8.9-.808,3.236-6.473,4.855,6.473,8.9,1.618-5.663,5.663,3.236,8.09-8.9-4.045Zm30.744-26.7-0.81-7.281-9.708-5.664,9.708-3.236V603.61l7.282,6.472,8.09,0.809-4.045,5.663,4.854,7.282-8.09-1.618ZM446.838,791.307l3.236-7.282,9.708,0.809-6.472-8.09,0.809-6.472-8.9,2.427-6.472-5.663,0.809,8.09-6.473,4.854,9.709,2.427Zm20.226-38.834,5.663-5.663,8.09,2.427-4.854-8.091,4.045-7.281-8.9,1.618-6.472-7.281-0.809,8.09-8.091,4.045,9.709,4.046Zm17.8-46.924,8.09-.809,1.618-9.709,5.663,8.9,9.709,0.809L504.28,710.4l4.854,8.09-9.709-4.045-5.663,5.663-0.809-9.708Zm30.743-30.744,8.091,0.809,4.045-8.9,3.236,8.9,10.517,2.427-6.472,4.855,1.618,8.09-8.09-5.663-8.091,4.045,2.427-8.091Zm30.744-21.844,4.854,5.663-2.427,8.9,8.09-1.618,7.281,5.663v-8.09l6.473-2.428-7.282-4.045-2.427-8.9-5.663,7.281Zm29.934-15.372,5.663,6.473-3.236,8.09,8.9-.809,6.472,5.663v-8.09l7.281-3.236-8.9-4.045-1.618-7.282-5.664,4.855Zm30.744-2.427,2.427-7.281-5.664-6.472,8.091,1.618,5.663-7.282,3.236,8.9,8.9,3.236-7.282,3.236,1.618,8.9-8.9-7.281Zm26.7-14.562,1.618-8.091-6.472-7.281,8.9,0.809,4.045-6.472,4.045,8.09,9.709,1.618-7.281,4.854,2.427,8.9-8.9-6.473ZM433.893,737.91l3.236-6.472h8.9l-6.472-5.663,1.618-9.709-8.9,4.045-8.09-5.663,2.427,7.281-7.281,5.664,12.135,2.427Zm-1.618-57.442-3.236-3.236-1.618,3.236h4.854Zm8.9,7.282,7.281-1.618,1.618-8.9,6.472,7.282,8.9-2.427-3.236,7.281,5.663,7.281-8.9-1.618-5.663,5.663-1.618-8.09Zm27.507-33.98,8.9-.809,2.427-9.708,5.664,9.708h8.9l-5.663,6.472,4.854,8.091-8.9-4.854-6.473,4.854-0.809-8.091Zm-15.372-8.9-4.045-5.663-2.427,4.854Zm10.518-27.508,7.281-4.854,7.281,4.045-2.427-8.09,4.854-6.472h-8.9l-1.618-2.427-6.472,11.326v6.472h0Zm36.406,6.473h8.9l3.236-8.091,4.045,8.9h8.9l-4.855,5.663,3.237,8.09-9.709-4.045-5.663,3.236-0.809-7.281-7.282-6.472h0Zm33.98-8.9,4.045-6.472-6.472-7.281,8.09,1.618,5.664-4.045,2.427,5.663,9.335,3.89,0.373,0.155-8.09,3.236,0.809,8.9-8.091-7.282-8.09,1.618h0Zm39.643-16.18h6.472v5.663Z" transform="translate(-216.25 -301.844)"/>
  <path id="FIRE_DEPT." data-name="FIRE DEPT." class="cls-4" d="M477.232,535.442a1.411,1.411,0,0,0,1.412,1.412h8.77a1.462,1.462,0,0,0,1.412-1.412v-18.06h16.945a1.462,1.462,0,0,0,1.412-1.412v-8.1a1.462,1.462,0,0,0-1.412-1.412H488.826v-10.7h20.587a1.411,1.411,0,0,0,1.412-1.412v-8.1a1.411,1.411,0,0,0-1.412-1.412H478.644a1.411,1.411,0,0,0-1.412,1.412v49.2Zm42.215,0a1.462,1.462,0,0,0,1.412,1.412h8.918a1.462,1.462,0,0,0,1.412-1.412v-49.2a1.462,1.462,0,0,0-1.412-1.412h-8.918a1.462,1.462,0,0,0-1.412,1.412v49.2Zm24.9,0a1.411,1.411,0,0,0,1.412,1.412H554.6a1.462,1.462,0,0,0,1.412-1.412V516.49h5.128l9.885,19.695a1.368,1.368,0,0,0,1.189.669H582.1a1.406,1.406,0,0,0,1.263-2.155L573.18,515.822c6.466-2.6,11-8.1,11-14.939a16.161,16.161,0,0,0-16.2-16.053H545.756a1.411,1.411,0,0,0-1.412,1.412v49.2Zm11.668-28.39V495.458h11a5.694,5.694,0,0,1,5.648,5.648,5.959,5.959,0,0,1-5.648,5.946h-11Zm38.5,28.39a1.411,1.411,0,0,0,1.412,1.412h30.769a1.411,1.411,0,0,0,1.412-1.412v-8.1a1.411,1.411,0,0,0-1.412-1.412H606.106V515.9h16.945a1.411,1.411,0,0,0,1.412-1.412v-8.1a1.462,1.462,0,0,0-1.412-1.412H606.106v-9.216h20.587a1.411,1.411,0,0,0,1.412-1.412v-8.1a1.411,1.411,0,0,0-1.412-1.412H595.924a1.411,1.411,0,0,0-1.412,1.412v49.2Zm60.721,0a1.4,1.4,0,0,0,1.338,1.412h18.134a26.012,26.012,0,1,0,0-52.024H656.571a1.4,1.4,0,0,0-1.338,1.412v49.2Zm11.594-9.587v-30.1h7.135c8.4,0,14.492,6.614,14.492,15.013,0,8.472-6.094,15.087-14.492,15.087h-7.135Zm43.4,9.587a1.411,1.411,0,0,0,1.412,1.412h30.769a1.411,1.411,0,0,0,1.412-1.412v-8.1a1.411,1.411,0,0,0-1.412-1.412H721.825V515.9H738.77a1.411,1.411,0,0,0,1.412-1.412v-8.1a1.462,1.462,0,0,0-1.412-1.412H721.825v-9.216h20.587a1.411,1.411,0,0,0,1.412-1.412v-8.1a1.411,1.411,0,0,0-1.412-1.412H711.643a1.411,1.411,0,0,0-1.412,1.412v49.2Zm43.925,0a1.411,1.411,0,0,0,1.412,1.412h8.769a1.462,1.462,0,0,0,1.413-1.412V517.977h7.8a16.574,16.574,0,1,0-.074-33.147H755.568a1.411,1.411,0,0,0-1.412,1.412v49.2Zm11.594-28.316V495.755h7.06a5.669,5.669,0,0,1,5.871,5.5,5.836,5.836,0,0,1-5.871,5.871h-7.06Zm39.241,28.316a1.462,1.462,0,0,0,1.413,1.412h8.918a1.462,1.462,0,0,0,1.412-1.412V495.755h10.628a1.411,1.411,0,0,0,1.412-1.412v-8.1a1.411,1.411,0,0,0-1.412-1.412h-33a1.412,1.412,0,0,0-1.413,1.412v8.1a1.412,1.412,0,0,0,1.413,1.412h10.627v39.687Zm22.67-4.831a7.075,7.075,0,0,0,6.986,6.987,7.157,7.157,0,0,0,7.135-6.987,7.234,7.234,0,0,0-7.135-7.134A7.155,7.155,0,0,0,827.661,530.611Z" transform="translate(-216.25 -301.844)"/>
  <path id="LEBANON_TOWNSHIP" data-name="LEBANON TOWNSHIP" class="cls-4" d="M374.541,515.182a1.185,1.185,0,0,0,1.621-.428l11.8-20.272a1.184,1.184,0,0,0-.427-1.621l-5.877-3.422a1.184,1.184,0,0,0-1.621.428L372.569,502.7l-28.791-16.765a1.227,1.227,0,0,0-1.621.428l-3.736,6.416a1.185,1.185,0,0,0,.428,1.621Zm18.241-27.063a1.185,1.185,0,0,0,1.671.133l19.651-16.76a1.184,1.184,0,0,0,.132-1.671l-4.412-5.174a1.185,1.185,0,0,0-1.671-.133l-13.148,11.214-5.466-6.408,10.823-9.23a1.184,1.184,0,0,0,.132-1.671l-4.413-5.174a1.227,1.227,0,0,0-1.671-.132l-10.822,9.23-5.02-5.886,13.148-11.214a1.184,1.184,0,0,0,.133-1.671l-4.413-5.174a1.184,1.184,0,0,0-1.671-.132l-19.651,16.76a1.184,1.184,0,0,0-.132,1.671Zm29.143-22.993a1.185,1.185,0,0,0,1.609.471l13.576-7.422c6.515-3.561,9.51-10.958,6.158-17.09-2.753-5.036-8.654-5.294-12.214-4.913,1.825-2.775,3.927-7.905,1.622-12.121-3.142-5.748-10.877-7.279-17.336-3.747l-12.756,6.973a1.185,1.185,0,0,0-.471,1.609Zm-3.341-26.4-4.19-7.664,4.27-2.335a4.236,4.236,0,0,1,5.867,1.628,4.448,4.448,0,0,1-1.677,6.036Zm8.17,14.945-4.28-7.829,4.435-2.424c2.135-1.167,5.386-.812,6.584,1.378a4.527,4.527,0,0,1-1.757,6.151Zm25.664-3.627,6.419-2.428a2.323,2.323,0,0,0,1.571-2.195l0.335-5.463,15.872-6,3.844,3.815c0.945,0.911,1.544,1.084,2.594.687l6.478-2.45a1.1,1.1,0,0,0,.418-1.892l-33.118-32.364a1.265,1.265,0,0,0-1.235-.266l-0.583.22a1.265,1.265,0,0,0-.749,1.017l-3.412,46.18A1.1,1.1,0,0,0,452.418,450.042Zm8.825-19.346,0.735-11.283,0.058-.023,8.076,7.951Zm34.278,2.372a1.227,1.227,0,0,0,1.442.856l7.194-1.835a1.185,1.185,0,0,0,.856-1.442L499.262,408.1l0.06-.016,30,17.912a1.844,1.844,0,0,0,.863.1l0.968-.247a1.173,1.173,0,0,0,.871-1.381l-10.378-40.689a1.227,1.227,0,0,0-1.441-.856l-7.255,1.85a1.186,1.186,0,0,0-.856,1.442l5.474,21.463-0.061.016-30.044-17.064-1.512.385a1.174,1.174,0,0,0-.871,1.381Zm41-31.314A22.43,22.43,0,1,0,555.2,376.06,22.261,22.261,0,0,0,536.518,401.754Zm9.864-1.531a12.447,12.447,0,1,1,14.175,10.364A12.557,12.557,0,0,1,546.382,400.223Zm45.56,14.287a1.226,1.226,0,0,0,1.267,1.1l7.405-.534a1.185,1.185,0,0,0,1.1-1.267L600.038,390.6l0.062,0,26.358,22.93a1.829,1.829,0,0,0,.832.253l1-.072a1.173,1.173,0,0,0,1.1-1.2l-3.019-41.876a1.228,1.228,0,0,0-1.267-1.1l-7.467.539a1.184,1.184,0,0,0-1.1,1.267l1.592,22.089-0.062,0-26.549-22.1-1.555.112a1.173,1.173,0,0,0-1.1,1.2Zm68.269-3.026a1.227,1.227,0,0,0,1.171,1.2l7.487,0.086a1.227,1.227,0,0,0,1.2-1.171l0.385-33.316,8.922,0.1a1.185,1.185,0,0,0,1.2-1.172l0.079-6.8a1.186,1.186,0,0,0-1.172-1.2l-27.7-.32a1.184,1.184,0,0,0-1.2,1.172l-0.079,6.8a1.184,1.184,0,0,0,1.172,1.2l8.921,0.1Zm24.7-20.4a22.427,22.427,0,1,0,24.008-20.793A22.259,22.259,0,0,0,684.913,391.081Zm9.953,0.742a12.445,12.445,0,1,1,11.457,13.3A12.555,12.555,0,0,1,694.866,391.823ZM743.4,418.007a1.2,1.2,0,0,0,.967,1.044l0.985,0.162a1.267,1.267,0,0,0,1.158-.5l15.347-23.334,0.184,0.03,7.123,27.032a1.266,1.266,0,0,0,.935.849l0.985,0.162a1.2,1.2,0,0,0,1.25-.679l18.442-39.454a1.087,1.087,0,0,0-.865-1.659l-7.2-1.186a1.282,1.282,0,0,0-1.25.68l-8.728,20-0.246-.04-5.976-23.239a1.062,1.062,0,0,0-.935-0.85l-1.108-.182a1.189,1.189,0,0,0-1.158.5l-13.108,20.1-0.246-.041-1.86-21.739a1.282,1.282,0,0,0-.966-1.045l-7.2-1.185a1.087,1.087,0,0,0-1.351,1.3Zm47.645,7.58a1.229,1.229,0,0,0,.829,1.457l7.16,1.965a1.184,1.184,0,0,0,1.457-.829l6.162-22.441,0.06,0.017,17.206,30.41a1.843,1.843,0,0,0,.7.516l0.962,0.264a1.174,1.174,0,0,0,1.441-.769l11.118-40.49a1.227,1.227,0,0,0-.83-1.457l-7.219-1.982a1.184,1.184,0,0,0-1.457.829l-5.865,21.358-0.06-.017-17.661-29.694-1.5-.413a1.173,1.173,0,0,0-1.44.769Zm45.769,10.139c0.809,1.861,3.754,6.641,11.3,9.613,8.532,3.361,16.076-.641,18.431-6.619,3.109-7.894-2.693-14.27-6.512-17.853-3.854-3.664-4.955-5.975-4.109-8.122,0.617-1.568,2.733-2.343,4.822-1.52,3.541,1.394,6.521,6.256,6.929,6.752,0.362,0.612,1.613.5,2.271,0.023l4.721-3.3a1.582,1.582,0,0,0,.383-2,23.2,23.2,0,0,0-10.707-9.246c-8.939-3.521-15.7.524-17.958,6.27-2.744,6.965,1.993,13.324,6.208,17.263,3.33,3.122,4.63,5.78,3.669,8.218-0.8,2.031-3.055,2.82-5.377,1.9-3.831-1.509-6.8-6.231-6.984-6.439a1.61,1.61,0,0,0-2.111-.429l-4.626,3.743C836.383,434.616,836.465,434.917,836.817,435.726Zm33.234,16.425a1.227,1.227,0,0,0,.428,1.621l6.416,3.734a1.184,1.184,0,0,0,1.62-.428l8.254-14.179,15.42,8.975-8.254,14.18a1.185,1.185,0,0,0,.428,1.621l6.416,3.734a1.227,1.227,0,0,0,1.621-.428l20.775-35.692a1.226,1.226,0,0,0-.428-1.62l-6.416-3.735a1.184,1.184,0,0,0-1.62.428L906.8,443.949l-15.42-8.976,7.909-13.587a1.184,1.184,0,0,0-.428-1.62l-6.416-3.735a1.227,1.227,0,0,0-1.621.428Zm40.866,26.372a1.227,1.227,0,0,0,.095,1.674l5.583,4.987a1.227,1.227,0,0,0,1.674-.094l27.513-30.8a1.227,1.227,0,0,0-.094-1.674l-5.584-4.987a1.227,1.227,0,0,0-1.674.094ZM926.8,492.894a1.185,1.185,0,0,0-.377,1.633l3.9,6.243a1.225,1.225,0,0,0,1.633.377l12.434-7.77,3.472,5.556a13.913,13.913,0,1,0,23.564-14.8l-7.968-12.752a1.186,1.186,0,0,0-1.634-.377Zm25.317-4.344,8.1-5.059,3.141,5.027a4.759,4.759,0,0,1-1.3,6.626,4.9,4.9,0,0,1-6.792-1.567Z" transform="translate(-216.25 -301.844)"/>
</svg>
