<?xml version="1.0" encoding="utf-8"?>
<!-- Generator: Adobe Illustrator 23.0.4, SVG Export Plug-In . SVG Version: 6.00 Build 0)  -->
<svg version="1.1" id="Layer_1" xmlns="http://www.w3.org/2000/svg" xmlns:xlink="http://www.w3.org/1999/xlink" x="0px" y="0px"
	 viewBox="0 0 1092.2 399.2" style="enable-background:new 0 0 1092.2 399.2;" xml:space="preserve">
<style type="text/css">
	.st0{fill:#3373B9;}
	.st1{fill:none;stroke:#C22026;stroke-width:12.129;}
	.st2{fill:#C22026;}
</style>
<g>
	<path class="st0" d="M156.2,157.6H63l-19,44.2H0L91.5,2.5h35.3l91.5,199.3h-43.1L156.2,157.6z M141.9,124.3l-32.2-74.7l-32.2,74.7
		H141.9z"/>
	<path class="st0" d="M408.1,2.5v199.3h-32.5L276.3,74.7v127.1h-40.9V2.5h32.2l99.4,126.8V2.5H408.1z"/>
	<path class="st0" d="M448.1,2.5h43.7v199.3h-43.7V2.5z"/>
	<path class="st0" d="M558,198.3c-13.9-4-25.4-9.7-34.6-16.9l14-31.3c19.2,13.4,40.7,20.2,64.4,20.2c12.7,0,22.4-2,29.2-6
		c6.8-4,10.2-9.7,10.2-16.9c0-6.3-3.1-11.3-9.4-15c-6.3-3.6-17.2-7.1-32.9-10.5c-17.5-3.5-31.5-7.9-41.8-13
		c-10.4-5.1-17.9-11.4-22.7-18.8c-4.8-7.4-7.1-16.6-7.1-27.6c0-11.9,3.3-22.7,9.9-32.2c6.6-9.5,15.9-16.9,27.9-22.3
		c11.9-5.3,25.8-8,41.4-8c14.2,0,27.8,2.1,40.9,6.2c13.1,4.1,23.5,9.7,31.3,16.8l-14,31.3c-17.5-13.4-36.9-20.2-57.9-20.2
		c-11.2,0-20.2,2.2-26.9,6.7s-10.1,10.5-10.1,18.2c0,4.5,1.3,8.2,3.8,11.2c2.5,3,6.8,5.6,12.7,8c6,2.3,14.5,4.6,25.5,6.9
		c25.6,5.6,44,12.9,55.3,21.8c11.3,9,16.9,21.2,16.9,36.7c0,18.7-7.3,33.4-21.8,44.4c-14.6,10.9-34.8,16.4-60.7,16.4
		C586.4,204.3,571.9,202.3,558,198.3z"/>
	<path class="st0" d="M741.9,198.3c-13.9-4-25.4-9.7-34.6-16.9l14-31.3c19.2,13.4,40.7,20.2,64.4,20.2c12.7,0,22.4-2,29.2-6
		c6.8-4,10.2-9.7,10.2-16.9c0-6.3-3.1-11.3-9.4-15c-6.3-3.6-17.2-7.1-32.9-10.5c-17.5-3.5-31.5-7.9-41.8-13
		c-10.4-5.1-17.9-11.4-22.7-18.8c-4.8-7.4-7.1-16.6-7.1-27.6c0-11.9,3.3-22.7,9.9-32.2c6.6-9.5,15.9-16.9,27.8-22.3
		c11.9-5.3,25.8-8,41.4-8c14.2,0,27.8,2.1,40.9,6.2c13.1,4.1,23.5,9.7,31.3,16.8l-14,31.3c-17.5-13.4-36.9-20.2-57.9-20.2
		c-11.2,0-20.2,2.2-26.9,6.7s-10.1,10.5-10.1,18.2c0,4.5,1.3,8.2,3.8,11.2c2.5,3,6.8,5.6,12.7,8c6,2.3,14.5,4.6,25.5,6.9
		c25.6,5.6,44,12.9,55.3,21.8c11.3,9,16.9,21.2,16.9,36.7c0,18.7-7.3,33.4-21.8,44.4c-14.6,10.9-34.8,16.4-60.7,16.4
		C770.3,204.3,755.8,202.3,741.9,198.3z"/>
	<path class="st0" d="M1030,157.6h-93.2l-19,44.2h-43.9L965.4,2.5h35.3l91.5,199.3h-43.1L1030,157.6z M1015.7,124.3l-32.2-74.7
		l-32.2,74.7H1015.7z"/>
</g>
<g>
	<path class="st0" d="M335.1,300.2v5.2h13.7v11.4h-13.7v49.9h-15.2v-49.9h-11.6v-11.4h11.6v-5.9c0-7.3,1.8-12.9,5.5-16.8
		c3.7-3.9,9-5.9,15.8-5.9c3.8,0,7,0.5,9.6,1.5v12c-2.3-0.6-4.2-0.8-5.9-0.8C338.4,289.4,335.1,293,335.1,300.2z"/>
	<path class="st0" d="M371.3,363.7c-4.7-2.6-8.4-6.3-10.9-11.1c-2.5-4.8-3.8-10.5-3.8-16.9c0-6.5,1.3-12.1,3.8-16.9
		c2.5-4.8,6.2-8.5,10.9-11.1c4.7-2.6,10.2-3.9,16.4-3.9c6.1,0,11.6,1.3,16.3,3.9c4.7,2.6,8.3,6.3,10.9,11.1
		c2.5,4.8,3.8,10.5,3.8,16.9c0,6.5-1.3,12.1-3.8,16.9c-2.5,4.8-6.2,8.5-10.9,11.1c-4.7,2.6-10.1,3.9-16.3,3.9
		C381.5,367.6,376,366.3,371.3,363.7z M399.4,350.7c2.7-3.4,4.1-8.3,4.1-15c0-6.5-1.4-11.5-4.1-15c-2.8-3.4-6.6-5.2-11.6-5.2
		c-5.1,0-9,1.7-11.8,5.2c-2.7,3.4-4.1,8.4-4.1,15c0,6.6,1.4,11.6,4.1,15c2.7,3.4,6.6,5,11.7,5C392.8,355.7,396.7,354.1,399.4,350.7z
		"/>
	<path class="st0" d="M470.8,304.9l-0.1,13.8c-2.6-1-5.3-1.6-8-1.6c-5.2,0-9.1,1.5-11.8,4.5c-2.7,3-4.1,7-4.1,11.9v33.1h-15v-43.9
		c0-6.5-0.3-12.2-1-17.3H445l1.2,10.8c1.5-4,4-7,7.3-9.1c3.3-2.1,7.1-3.2,11.3-3.2C467.1,303.9,469.1,304.3,470.8,304.9z"/>
</g>
<line class="st1" x1="307.7" y1="392.8" x2="470.9" y2="392.8"/>
<line class="st1" x1="307.7" y1="254.8" x2="470.9" y2="254.8"/>
<g>
	<path class="st2" d="M507.3,248.7h64.5c16,0,28.5,3.9,37.4,11.6c8.9,7.7,13.4,18.3,13.4,31.6c0,13.4-4.5,23.9-13.5,31.7
		c-9,7.8-21.4,11.7-37.3,11.7h-37.6v62h-26.9V248.7z M568.7,314.5c9.3,0,16.4-1.9,21.2-5.7c4.8-3.8,7.2-9.4,7.2-16.6
		c0-7.4-2.4-13-7.1-16.8c-4.7-3.8-11.8-5.7-21.3-5.7h-34.5v44.9H568.7z"/>
	<path class="st2" d="M661.3,383.5c-10.5-10.5-15.8-25.9-15.8-46.2v-88.5H672v90c0,12.8,3,22.5,9,29.1c6,6.6,14.9,9.9,26.7,9.9
		c11.6,0,20.4-3.3,26.4-10c6.1-6.7,9.1-16.4,9.1-29v-90h26.5v88.5c0,20.2-5.3,35.6-15.9,46.1c-10.6,10.6-26,15.9-46.1,15.9
		C687.3,399.2,671.8,394,661.3,383.5z"/>
</g>
</svg>
