<svg id="SVG_Layers" data-name="SVG Layers" xmlns="http://www.w3.org/2000/svg" width="1091.97" height="1297" viewBox="0 0 1091.97 1297">
  <defs>
    <style>
      .cls-1 {
        fill: #002868;
      }

      .cls-1, .cls-2, .cls-3, .cls-4 {
        fill-rule: evenodd;
      }

      .cls-2 {
        fill: #bf0a30;
      }

      .cls-3 {
        fill: #1793cf;
      }

      .cls-4, .cls-5, .cls-6, .cls-7 {
        fill: #fff;
      }

      .cls-5 {
        font-size: 144px;
      }

      .cls-5, .cls-6, .cls-7 {
        text-anchor: middle;
        font-family: "Futura BdCn BT";
        font-weight: 700;
      }

      .cls-6 {
        font-size: 106.367px;
      }

      .cls-7 {
        font-size: 120px;
      }
    </style>
  </defs>
  <path id="Blue_Base" data-name="Blue Base" class="cls-1" d="M112,551L302,186s-0.557-8.545,22-8,677,0,677,0,9.01-.622,16,11,186,355,186,355,3.19,4.467-2,24-255,893-255,893,2.678,12.66-17,13-545,1-545,1-9.785-1.59-14-17S114,559,114,559Z" transform="translate(-112 -178)"/>
  <path id="Red_Overlay" data-name="Red Overlay" class="cls-2" d="M400,1441H917l252-887L991,212H326L149,553Z" transform="translate(-112 -178)"/>
  <path id="Light_Blue_medallion" data-name="Light Blue medallion" class="cls-3" d="M340,693s-1.672-5.189,2-13,75-141,75-141-1.507-3.722,8-4,471,0,471,0a15.269,15.269,0,0,1,6,7c2.2,4.976,75,140,75,140a27.069,27.069,0,0,1,0,12c-1.481,6.732-167,590-167,590s0.957,6.16-13,6-283-1-283-1-4.422.24-6-6S340,693,340,693Z" transform="translate(-112 -178)"/>
  <path id="Medallion_Inlay" data-name="Medallion Inlay" class="cls-2" d="M350,685l76-140H892l75,142L799,1278H519Z" transform="translate(-112 -178)"/>
  <path id="White_Stripes" data-name="White Stripes" class="cls-4" d="M514,1259l-18-62c35.2-25.79,74.751-43.05,117-50,25.408-4.18,63.78-3.19,106,4a688.589,688.589,0,0,1,109,28l-16,52c-49.229-15.19-104.931-26.34-155-26-29.466.2-54.216,4.66-72,11-19.676,7.01-39.458,17.99-58,32-3.441,2.6-6.726,5.23-10,8ZM802,693s-12-41.984-18-63a351.648,351.648,0,0,0,132-40l30,57a392.15,392.15,0,0,1-65,28A454.341,454.341,0,0,1,802,693Zm33,113-16-54a255.3,255.3,0,0,0,144-50l-23,82a302.844,302.844,0,0,1-99,20ZM397,849.761c31.232-22.195,66.143-36.421,103.2-40.919,17.515-2.126,51.994-.415,86.164,6.986A710.858,710.858,0,0,1,659,836c7.318,2.4,14.723,4.458,22,7a72.826,72.826,0,0,0,8,2c0.772,0.188.232,0.817,1,1,22.324,5.323,43.449,14.486,62,16,2.951,0.241,6.251.914,9,1,4.252,0.133,8.075.138,12,0,10.779-.378,21.832-3.258,33-5,3.245-.506,17.607-1.084,21-1,10.064,0.25,25.283,2.426,45.907.746A211.616,211.616,0,0,0,922,847.765l-20.038,70.861a418.488,418.488,0,0,1-96.183-6.986c-36.789-7.021-66.123-19.543-103.2-31.938-34.089-11.4-69.7-21.692-93.177-24.95-42.989-5.966-80.578-4.49-114.217,2a329.347,329.347,0,0,0-87.166,29.941L396,850.759M747,1103a87.2,87.2,0,0,0,27-45h1q40,10.995,80,22l-14,50Zm-170-75v64a185.294,185.294,0,0,0-98,44l-17-58a201.247,201.247,0,0,1,64-38A243.586,243.586,0,0,1,577,1028Zm35,58c0-.01,0-53.65,0-62,21.227,2.25,41.992,5.22,63,9,21.621,3.89,42.728,8.51,64,14-0.24,10.4-3.587,20.49-11,27a19.428,19.428,0,0,1-10,5c-7.7.87-14.739-4.42-18.163-10.08A21.742,21.742,0,0,1,697,1055l-35,3a73.494,73.494,0,0,0,8,29c-10.029-.53-19.863-0.86-30-1C625.979,1085.81,612,1086,612,1086Zm-166-67-18-58a200.909,200.909,0,0,1,146-52v1a90.167,90.167,0,0,1-41,33v32a177.95,177.95,0,0,0-85.612,43.57ZM612,909v60a169.508,169.508,0,0,1,47,5v-2a85.048,85.048,0,0,1,12-55l-3-1a212.841,212.841,0,0,0-56-7m83,70a67.734,67.734,0,0,1,0-30c2.656-11.31,7.685-17.508,10.852-18.809,2.341-.962,9.469-0.513,17.8,3a32.729,32.729,0,0,1,7.111,3.964c4.089,3.51,6.7,10.7,8.377,21.984,0.909,6.125,1.307,12.164.864,15.857a46.159,46.159,0,0,1-5,16l-39-11Zm79-30c-0.849.24,3.81,16.823,5,32a140.5,140.5,0,0,1,0,22h2c12.354,3.65,24.491,6.93,37,10,17.327,4.25,34.431,7.87,52,11l16-53c-20.961-2.712-49.5-6.667-62-8-25.042-2.67-48.648-12.624-49.812-13.9A0.239,0.239,0,0,0,774,949ZM560,968l17-14v14H560Z" transform="translate(-112 -178)"/>
  <path id="Blue_Flag" data-name="Blue Flag" class="cls-1" d="M396,850L351,691s-2.45-2.029,3-11,70-133,70-133-2.409-2.011,11-2,326-1,326-1l87,314a191.409,191.409,0,0,0-40,0c-9.565,1.01-17.429,3.048-27,4-26.411,2.628-47.735-3.286-63-8-35.2-10.87-75.945-24.2-104-32-23.345-6.494-45-10.889-63-12-23.284-1.437-52,.888-85,9-23.258,5.718-41.422,13.139-56,22-4.134,2.512-8.105,5.16-12,8Z" transform="translate(-112 -178)"/>
  <path id="_19" data-name="19" class="cls-1" d="M532,944l1,39a123.645,123.645,0,0,0,44-31v158h35V892H583a88.971,88.971,0,0,1-50,51Zm211,75c-0.731,9.05-1.717,17.91-3,27a89.991,89.991,0,0,1-5,17c-2.311,5.46-5.068,9.92-10,13-4.709,2.94-8.735,3.5-12,3-3.436-.52-7.205-2.4-11-7a23.348,23.348,0,0,1-5-16l-35,3a80.046,80.046,0,0,0,10,30c5.63,9.73,13.453,16.88,17,19,5.1,3.05,12.472,5.77,23,6a55.461,55.461,0,0,0,31-9c4.762-3.07,14.852-12.85,22-26a104.746,104.746,0,0,0,10-28,141.2,141.2,0,0,0,3-26c0.427-11.4,1.14-26.147,1-33-0.378-18.558-2.244-33.759-6-48-3.572-13.543-8.526-25.029-18-35-8.384-8.824-16.482-13.035-23-15a50.255,50.255,0,0,0-15-2,56.067,56.067,0,0,0-32,10c-6.512,4.614-13.489,11.87-19,24-2.367,5.21-5.14,19.256-6,33a125.347,125.347,0,0,0,0,19c1.27,12.089,4.773,22.11,8,28a59.307,59.307,0,0,0,20,22c10.857,6.92,21.476,8.42,26,8,10.36-.96,19.558-6.68,26-15Zm-49-51c-0.279-9.544-.563-15.858,2.049-24.1,2.6-8.212,6.318-12.58,9.951-14.9a17.491,17.491,0,0,1,10-3c4.1,0.141,9.277,2.1,15,9,6.012,7.247,7.143,15.5,8,30,0.792,13.4.682,21.245-4,28-2.453,3.54-8.809,10.92-18,11-10.131.09-16.787-8.554-19-12C694.167,986.031,694.319,978.9,694,968Z" transform="translate(-112 -178)"/>
  <text id="EMS" class="cls-5" x="545.5" y="1234.699">EMS</text>
  <text id="FIRE" class="cls-6" transform="translate(174.366 783.862) rotate(74.447) scale(1.354)">FIRE</text>
  <text id="RESCUE" class="cls-7" transform="translate(909.605 813.238) rotate(-73.168) scale(1.204)">RESCUE</text>
  <path id="LEBANON_TWP_FIRE_DEPARTMENT" data-name="LEBANON TWP FIRE DEPARTMENT" class="cls-4" d="M386.81,312.3H374.963v12.69H363.222V283.735h4.711v-18.95h-28.37v18.95h4.461v41.256h-4.461V343.94H386.81V312.3Zm53.678,6.317H427.462v6.373H416.186V312.017H426V295.912h-9.813V283.735h11.276v6.373h13.026V264.785H393.062v18.95h3.926v41.256h-3.854V343.94h47.354V318.618Zm36.941-7.626q4.6,0,6.209,1.878,1.605,1.935,1.606,5.975,0,4.326-1.785,6.032-1.82,1.707-5.959,1.707h-4.318V310.992h4.247Zm-0.678-28.851q5.28,0,6.459,2.22a10.516,10.516,0,0,1,1.177,5.007A9.518,9.518,0,0,1,483.1,294.6q-1.356,1.993-5.673,1.992h-4.247V282.141h3.569Zm17.164,60.035a15.1,15.1,0,0,0,8.814-7.227,26.721,26.721,0,0,0,3.212-13.543,25.1,25.1,0,0,0-2.855-12.007,17.574,17.574,0,0,0-8.065-7.739,14.439,14.439,0,0,0,6.5-5.691q2.6-3.982,2.6-10.7a25.368,25.368,0,0,0-2.748-12.064,13.749,13.749,0,0,0-7.565-6.772q-4.89-1.65-13.81-1.65H449.666v18.95h4.318v41.256h-4.318V343.94H477.75q10.634,0,16.165-1.764h0ZM538.6,306.781h-8.886l4.675-21.908Zm-8.886,19.8h-4.068l2.177-9.958h12.7l1.891,9.958h-4.354V343.94h25.908V324.991h-3.64l-9.492-41.256h4v-18.95H519.151v18.95h4l-9.314,41.256h-3.782V343.94h19.662V326.584Zm59.637-1.593h-4.389V297.107l20.911,47.858h16.344v-61.23h4.318v-18.95h-20.02v18.95h4.033v22.42l-18.057-41.37H568.975v18.95h4.353v41.256h-4.353V343.94h20.376V324.991Zm68.272-38.753q1.606-4.494,4.818-4.5,3.354,0,4.889,4.666,1.569,4.724,1.57,17.755,0,13.43-1.606,17.982-1.6,4.5-4.853,4.5-3.284,0-4.818-4.666-1.605-4.61-1.605-17.811,0-13.429,1.605-17.926h0ZM642.243,333.7q7.743,11.5,20.2,11.5,12.882,0,20.447-12.234t7.566-28.794A60.435,60.435,0,0,0,688.6,288.97a51.125,51.125,0,0,0-5.5-13.316q-7.317-12.462-20.662-12.462a23.555,23.555,0,0,0-5.852.711,21.858,21.858,0,0,0-5.157,2.02,21.245,21.245,0,0,0-4.621,3.528,38.334,38.334,0,0,0-9.314,15.535,61.32,61.32,0,0,0-3.033,19.178q0,18.1,7.779,29.533h0Zm76.409-8.706h-4.389V297.107l20.911,47.858h16.344v-61.23h4.318v-18.95h-20.02v18.95h4.033v22.42l-18.057-41.37H698.276v18.95h4.353v41.256h-4.353V343.94h20.376V324.991Zm97.47,0h-4.389V283.735h5.674v14.4h9.313V264.785H777.511v33.347h9.313v-14.4h5.71v41.256h-4.282V343.94h27.87V324.991Zm55.64-10.869,6.709,30.5h15.416l14.131-60.888h3.426v-18.95h-20.02v18.95h3.569l-5.924,34.086-7.529-34.086h3.675v-18.95H863.59v18.95h3.676l-7.423,34.086-5.852-34.086H857.7v-18.95H831.973v18.95H835.4l13.988,60.888h15.63Zm72.34-31.981a16.031,16.031,0,0,1,4.854.512,4.25,4.25,0,0,1,2.391,2.39,10.877,10.877,0,0,1,.927,4.724q0,4.268-1.713,5.747-1.784,1.48-5.709,1.48h-3.747V282.141h3Zm2,42.85h-5v-11.1h7.744q9.169,0,13.56-2.447a17.81,17.81,0,0,0,7.173-8.08q2.711-5.519,2.712-13.885a33.173,33.173,0,0,0-2.284-12.462,19.276,19.276,0,0,0-7.137-8.991q-4.854-3.245-15.345-3.244H917.089v18.95h4.817v41.256h-4.817V343.94H946.1V324.991Zm-680.581,130h-5.745V442.017h8.564V425.912h-8.564V413.735h11.1v7.113h13.2V394.785H235.188v18.95h5.389v41.256h-5.21V473.94H265.52V454.991Zm52.357,0h-4.532V413.735h4.532v-18.95h-28.3v18.95h4.568v41.256h-4.568V473.94h28.3V454.991Zm32.624-42.85a29.827,29.827,0,0,1,6,.4,4.458,4.458,0,0,1,2.819,2.276,9.378,9.378,0,0,1,1.106,4.894,9.069,9.069,0,0,1-1.106,4.837,4.466,4.466,0,0,1-2.712,2.276,26.479,26.479,0,0,1-5.71.4h-2.141v-15.08H350.5Zm2,42.85h-3.747V441.618h6.1l10.813,32.322h17.878V454.991h-3.569l-6.851-18.1a16.074,16.074,0,0,0,5.246-7.284,29.853,29.853,0,0,0,2-11.153,29.333,29.333,0,0,0-3.283-14.227q-3.248-5.918-8.457-7.682a26.423,26.423,0,0,0-4.069-1q-2.213-.369-5.317-0.569t-6.744-.2H325.521v18.95h4.032v41.256h-4.032V473.94H352.5V454.991Zm84.723-6.373H424.2v6.373H412.921V442.017h9.813V425.912h-9.813V413.735H424.2v6.373h13.025V394.785H389.8v18.95h3.925v41.256h-3.854V473.94h47.354V448.618Zm53.613-34.883q5.709,0,7.922,2.788a17.176,17.176,0,0,1,3.141,7.91,62.682,62.682,0,0,1,.856,10.357,44.583,44.583,0,0,1-2,14.454q-2.034,5.748-8.814,5.747h-1.82V413.735h0.713Zm14.2,58.84a19.034,19.034,0,0,0,8.921-5.862q4.176-4.494,6.887-12.917a60.668,60.668,0,0,0,2.748-18.779,68.074,68.074,0,0,0-.678-9.788,56.289,56.289,0,0,0-1.963-8.763,35.209,35.209,0,0,0-7.137-13.543,22.355,22.355,0,0,0-9.742-6.545,45.873,45.873,0,0,0-13.274-1.593H467.033v18.95h3.89v41.256h-3.89V473.94h23.089q10.1,0,14.916-1.365h0Zm74.7-23.957H566.709v6.373H555.432V442.017h9.814V425.912h-9.814V413.735h11.277v6.373h13.025V394.785H532.308v18.95h3.926v41.256H532.38V473.94h47.354V448.618Zm36.191-36.477a16.031,16.031,0,0,1,4.854.512,4.246,4.246,0,0,1,2.39,2.39,10.862,10.862,0,0,1,.928,4.724q0,4.268-1.713,5.747-1.784,1.48-5.709,1.48h-3.747V412.141h3Zm2,42.85h-5v-11.1h7.744q9.169,0,13.56-2.447a17.81,17.81,0,0,0,7.173-8.08q2.711-5.519,2.712-13.885a33.173,33.173,0,0,0-2.284-12.462,19.276,19.276,0,0,0-7.137-8.991q-4.854-3.245-15.345-3.244H588.912v18.95h4.817v41.256h-4.817V473.94h29.012V454.991Zm54.391-18.21h-8.886l4.675-21.908Zm-8.886,19.8h-4.068l2.177-9.958h12.7l1.891,9.958H671.78V473.94h25.907V454.991h-3.64l-9.492-41.256h4v-18.95H652.867v18.95h4l-9.314,41.256h-3.782V473.94h19.662V456.584Zm65.061-44.443a29.82,29.82,0,0,1,6,.4,4.456,4.456,0,0,1,2.819,2.276,9.377,9.377,0,0,1,1.107,4.894,9.068,9.068,0,0,1-1.107,4.837,4.461,4.461,0,0,1-2.712,2.276,26.468,26.468,0,0,1-5.709.4h-2.141v-15.08h1.748Zm2,42.85h-3.746V441.618h6.1l10.812,32.322h17.878V454.991h-3.568l-6.852-18.1a16.067,16.067,0,0,0,5.246-7.284,29.853,29.853,0,0,0,2-11.153,29.322,29.322,0,0,0-3.283-14.227q-3.248-5.918-8.457-7.682a26.381,26.381,0,0,0-4.068-1q-2.212-.369-5.317-0.569t-6.745-.2H703.511v18.95h4.032v41.256h-4.032V473.94h26.977V454.991Zm73.626,0h-4.39V413.735H805.4v14.4h9.314V394.785H765.5v33.347h9.313v-14.4h5.71v41.256h-4.282V473.94h27.87V454.991Zm37.654,0h-3.925V411.345l14.845,62.595h7.423L875.1,410.775v44.216h-3.961V473.94h25.908V454.991h-4V413.735h3.889v-18.95H867.176l-7.494,30.558-7.315-30.558h-29.94v18.95h3.926v41.256h-3.819V473.94h19.234V454.991Zm110.774-6.373H939.517v6.373H928.24V442.017h9.814V425.912H928.24V413.735h11.277v6.373h13.025V394.785H905.116v18.95h3.926v41.256h-3.854V473.94h47.354V448.618Zm28.733,6.373h-4.389V427.107L997.8,474.965h16.342v-61.23h4.32v-18.95H998.44v18.95h4.03v22.42l-18.054-41.37H960.9v18.95h4.354v41.256H960.9V473.94h20.376V454.991Zm82.865,0h-4.39V413.735h5.68v14.4h9.31V394.785h-49.21v33.347h9.32v-14.4h5.71v41.256h-4.29V473.94h27.87V454.991Z" transform="translate(-112 -178)"/>
  <path id="Stars" class="cls-4" d="M798,826l-11-6,10-2,1-11,8,9h10l-4,7,5,11-10-5-8,7Zm-35-19-5-10,8-9H755l-7-11-4,10H733l10,8v9l8-4Zm-35,9-9,5,1,11-10-8-10,4,3-9-9-10,12,1,5-9,4,12Zm62-50,10,4-6-9,6-9H788l-7-9-1,11-12,1,12,7,1,11Zm-50-34,8-6-11-1-6-11-5,9-11,1,10,7-1,10,9-4,11,5-4-10m-40,24,9-5-12-3-4-11-5,10-11-2,7,8-2,10,10-3,10,7Zm-30,22,8-4-11-4-3-11-7,8-9-1,6,9-4,9,11-3,10,9Zm-38,12,11,4-10,4,2,12-10-8-10,3,3-10-8-8,11,1,6-10Zm-17-56,10-4-12-4-4-12-5,9-12-1,7,9-3,9,10-3,10,7Zm-36,20,10-5-12-3-4-12-5,9-11-1,7,9-4,8,10-2,9,5v-8Zm-38,22,7-5-11-2-6-12-4,10-11,1,10,7-2,11,10-5,10,5Zm229-74-7,6-2-11-11-4,10-3,2-11,7,10h12l-6,6,6,11Zm-44-23-4-10,8-7-12-2-6-11-4,10H697l10,8-1,11,9-5Zm20-35,8-6,10,4-5-10,6-9-12,1-7-9-1,10-11,3,11,5Zm-80,57,10-4,9,7-1-9,10-6-12-3-4-13-7,9H661l8,9Zm-17,5-3-10-7,6-10-2,5,8-4,10,10-2,9,7,1-9,11-3ZM440,799l7-7,11,3-8-10,6-8H444l-8-8-1,12-10,3,12,4Zm33-40,8-6,11,6-4-11,6-7-11-1-7-10-3,10-11,1,10,7Zm35-37,1-10-10-7,11-1,5-10,6,12h11l-8,7,4,10-11-5-10,5m35-28,4-8-7-9,11,2,5-9,5,12,12,2-10,6,1,10-10-7Zm35-21,4-9-7-8,11,2,7-7,2,9,11,6-8,4-1,10-7-7H577Zm35-18,4-9-7-10,11,3,7-8,2,11,11,2-9,5,2,11-9-8Zm34-21,10-3,10,7-2-10,8-6-10-3-5-10-6,8-10-1,8,8Zm42-22V603l-9-7,11-1,4-8,6,8,11,2-7,7,4,10-11-5Zm38-33-1-9-12-7,12-4v-9l9,8,10,1-5,7,6,9-10-2ZM397,783l4-9,12,1-8-10,1-8-11,3-8-7,1,10-8,6,12,3Zm25-48,7-7,10,3-6-10,5-9-11,2-8-9-1,10-10,5,12,5Zm22-58,10-1,2-12,7,11,12,1-7,7,6,10-12-5-7,7-1-12Zm38-38,10,1,5-11,4,11,13,3-8,6,2,10-10-7-10,5,3-10Zm38-27,6,7-3,11,10-2,9,7V625l8-3-9-5-3-11-7,9Zm37-19,7,8-4,10,11-1,8,7V607l9-4-11-5-2-9-7,6Zm38-3,3-9-7-8,10,2,7-9,4,11,11,4-9,4,2,11-11-9Zm33-18,2-10-8-9,11,1,5-8,5,10,12,2-9,6,3,11-11-8ZM381,717l4-8h11l-8-7,2-12-11,5-10-7,3,9-9,7,15,3Zm-2-71-4-4-2,4h6Zm11,9,9-2,2-11,8,9,11-3-4,9,7,9-11-2-7,7-2-10Zm34-42,11-1,3-12,7,12h11l-7,8,6,10-11-6-8,6-1-10Zm-19-11-5-7-3,6Zm13-34,9-6,9,5-3-10,6-8H428l-2-3-8,14v8h0Zm45,8h11l4-10,5,11h11l-6,7,4,10-12-5-7,4-1-9-9-8h0Zm42-11,5-8-8-9,10,2,7-5,3,7,11.539,4.808L534,557l-10,4,1,11-10-9-10,2h0Zm49-20h8v7Z" transform="translate(-112 -178)"/>
</svg>
